<mxfile host="app.diagrams.net" agent="Mozilla/5.0 (Windows NT 10.0; Win64; x64) AppleWebKit/537.36 (KHTML, like Gecko) Chrome/134.0.0.0 Safari/537.36" version="26.1.3">
  <diagram name="Page-1" id="qi3lIp9ydv2oDx0npDC7">
    <mxGraphModel dx="1909" dy="2182" grid="1" gridSize="10" guides="1" tooltips="1" connect="1" arrows="1" fold="1" page="1" pageScale="1" pageWidth="827" pageHeight="1169" math="0" shadow="0">
      <root>
        <mxCell id="0" />
        <mxCell id="1" parent="0" />
        <mxCell id="xxnfUtCZBif7c-njbAb_-1" value="&lt;div&gt;Museum Navigation&lt;/div&gt;" style="shape=umlFrame;whiteSpace=wrap;html=1;pointerEvents=0;recursiveResize=0;container=1;collapsible=0;width=160;" parent="1" vertex="1">
          <mxGeometry x="90.5" y="-450" width="629.5" height="930" as="geometry" />
        </mxCell>
        <mxCell id="xxnfUtCZBif7c-njbAb_-9" value="Open map" style="ellipse;whiteSpace=wrap;html=1;" parent="xxnfUtCZBif7c-njbAb_-1" vertex="1">
          <mxGeometry x="248" y="250" width="100" height="60" as="geometry" />
        </mxCell>
        <mxCell id="xxnfUtCZBif7c-njbAb_-10" value="See location on the map" style="ellipse;whiteSpace=wrap;html=1;" parent="xxnfUtCZBif7c-njbAb_-1" vertex="1">
          <mxGeometry x="276" y="170" width="100" height="60" as="geometry" />
        </mxCell>
        <mxCell id="xxnfUtCZBif7c-njbAb_-13" value="Select destination" style="ellipse;whiteSpace=wrap;html=1;" parent="xxnfUtCZBif7c-njbAb_-1" vertex="1">
          <mxGeometry x="41" y="400" width="100" height="60" as="geometry" />
        </mxCell>
        <mxCell id="xxnfUtCZBif7c-njbAb_-14" value="Modify stops" style="ellipse;whiteSpace=wrap;html=1;" parent="xxnfUtCZBif7c-njbAb_-1" vertex="1">
          <mxGeometry x="166" y="100" width="100" height="60" as="geometry" />
        </mxCell>
        <mxCell id="xxnfUtCZBif7c-njbAb_-17" value="Zoom and rotate map" style="ellipse;whiteSpace=wrap;html=1;" parent="xxnfUtCZBif7c-njbAb_-1" vertex="1">
          <mxGeometry x="266" y="350" width="106" height="60" as="geometry" />
        </mxCell>
        <mxCell id="xxnfUtCZBif7c-njbAb_-30" value="Navigation Instructions" style="ellipse;whiteSpace=wrap;html=1;" parent="xxnfUtCZBif7c-njbAb_-1" vertex="1">
          <mxGeometry x="89" y="750" width="80" height="60" as="geometry" />
        </mxCell>
        <mxCell id="xxnfUtCZBif7c-njbAb_-34" value="Update Route" style="ellipse;whiteSpace=wrap;html=1;" parent="xxnfUtCZBif7c-njbAb_-1" vertex="1">
          <mxGeometry x="376" y="100" width="72" height="60" as="geometry" />
        </mxCell>
        <mxCell id="xxnfUtCZBif7c-njbAb_-35" value="Update&lt;div&gt;Destination&lt;br&gt;&lt;div&gt;Status&lt;/div&gt;&lt;/div&gt;" style="ellipse;whiteSpace=wrap;html=1;" parent="xxnfUtCZBif7c-njbAb_-1" vertex="1">
          <mxGeometry x="200" y="10" width="72" height="60" as="geometry" />
        </mxCell>
        <mxCell id="xxnfUtCZBif7c-njbAb_-36" value="Suggest Alternative Destinations" style="ellipse;whiteSpace=wrap;html=1;" parent="xxnfUtCZBif7c-njbAb_-1" vertex="1">
          <mxGeometry x="247" y="850" width="96" height="60" as="geometry" />
        </mxCell>
        <mxCell id="xxnfUtCZBif7c-njbAb_-37" value="Deviation&lt;div&gt;Warning&lt;/div&gt;" style="ellipse;whiteSpace=wrap;html=1;" parent="xxnfUtCZBif7c-njbAb_-1" vertex="1">
          <mxGeometry x="247" y="720" width="95" height="65" as="geometry" />
        </mxCell>
        <mxCell id="xxnfUtCZBif7c-njbAb_-51" value="View traffic" style="ellipse;whiteSpace=wrap;html=1;" parent="xxnfUtCZBif7c-njbAb_-1" vertex="1">
          <mxGeometry x="36" y="80" width="72" height="60" as="geometry" />
        </mxCell>
        <mxCell id="4e0-sk53u4cvEUuogda4-1" value="&amp;lt;&amp;lt;include&amp;gt;&amp;gt;" style="html=1;verticalAlign=bottom;labelBackgroundColor=none;endArrow=open;endFill=0;dashed=1;rounded=0;entryX=0.047;entryY=0.294;entryDx=0;entryDy=0;entryPerimeter=0;exitX=1;exitY=0.5;exitDx=0;exitDy=0;" parent="xxnfUtCZBif7c-njbAb_-1" source="xxnfUtCZBif7c-njbAb_-14" target="xxnfUtCZBif7c-njbAb_-34" edge="1">
          <mxGeometry width="160" relative="1" as="geometry">
            <mxPoint x="58" y="390" as="sourcePoint" />
            <mxPoint x="218" y="390" as="targetPoint" />
          </mxGeometry>
        </mxCell>
        <mxCell id="4e0-sk53u4cvEUuogda4-22" value="&amp;lt;&amp;lt;extend&amp;gt;&amp;gt;" style="html=1;verticalAlign=bottom;labelBackgroundColor=none;endArrow=open;endFill=0;dashed=1;rounded=0;entryX=1;entryY=0.5;entryDx=0;entryDy=0;exitX=0;exitY=0.5;exitDx=0;exitDy=0;" parent="xxnfUtCZBif7c-njbAb_-1" source="xxnfUtCZBif7c-njbAb_-37" target="xxnfUtCZBif7c-njbAb_-30" edge="1">
          <mxGeometry width="160" relative="1" as="geometry">
            <mxPoint x="77" y="810" as="sourcePoint" />
            <mxPoint x="237" y="810" as="targetPoint" />
          </mxGeometry>
        </mxCell>
        <mxCell id="m_eC-Jq7Mb4rGVVXy1KV-3" value="Provide map" style="ellipse;whiteSpace=wrap;html=1;" parent="xxnfUtCZBif7c-njbAb_-1" vertex="1">
          <mxGeometry x="460" y="220" width="106" height="60" as="geometry" />
        </mxCell>
        <mxCell id="vUrrwfA5IS51OjPcq2oG-2" value="&amp;lt;&amp;lt;include&amp;gt;&amp;gt;" style="html=1;verticalAlign=bottom;labelBackgroundColor=none;endArrow=open;endFill=0;dashed=1;rounded=0;entryX=0.047;entryY=0.693;entryDx=0;entryDy=0;exitX=1;exitY=0.5;exitDx=0;exitDy=0;entryPerimeter=0;" parent="xxnfUtCZBif7c-njbAb_-1" source="xxnfUtCZBif7c-njbAb_-51" target="xxnfUtCZBif7c-njbAb_-35" edge="1">
          <mxGeometry width="160" relative="1" as="geometry">
            <mxPoint x="118" y="62" as="sourcePoint" />
            <mxPoint x="231" y="50" as="targetPoint" />
          </mxGeometry>
        </mxCell>
        <mxCell id="xxnfUtCZBif7c-njbAb_-22" value="Provide Location Data" style="ellipse;whiteSpace=wrap;html=1;" parent="xxnfUtCZBif7c-njbAb_-1" vertex="1">
          <mxGeometry x="437.5" y="500" width="112" height="70" as="geometry" />
        </mxCell>
        <mxCell id="tlJrk00Td1L9qtGwrMWg-7" value="&amp;lt;&amp;lt;extend&amp;gt;&amp;gt;" style="html=1;verticalAlign=bottom;labelBackgroundColor=none;endArrow=open;endFill=0;dashed=1;rounded=0;entryX=0.684;entryY=1.033;entryDx=0;entryDy=0;entryPerimeter=0;" edge="1" parent="xxnfUtCZBif7c-njbAb_-1" source="xxnfUtCZBif7c-njbAb_-36" target="xxnfUtCZBif7c-njbAb_-30">
          <mxGeometry width="160" relative="1" as="geometry">
            <mxPoint x="287" y="773" as="sourcePoint" />
            <mxPoint x="179" y="790" as="targetPoint" />
          </mxGeometry>
        </mxCell>
        <mxCell id="xxnfUtCZBif7c-njbAb_-29" value="Handle GPS Signal" style="ellipse;whiteSpace=wrap;html=1;" parent="xxnfUtCZBif7c-njbAb_-1" vertex="1">
          <mxGeometry x="276" y="505" width="77" height="60" as="geometry" />
        </mxCell>
        <mxCell id="vUrrwfA5IS51OjPcq2oG-1" value="&amp;lt;&amp;lt;include&amp;gt;&amp;gt;" style="html=1;verticalAlign=bottom;labelBackgroundColor=none;endArrow=open;endFill=0;dashed=1;rounded=0;exitX=0;exitY=0.5;exitDx=0;exitDy=0;entryX=1;entryY=0.5;entryDx=0;entryDy=0;" parent="xxnfUtCZBif7c-njbAb_-1" target="xxnfUtCZBif7c-njbAb_-29" edge="1">
          <mxGeometry width="160" relative="1" as="geometry">
            <mxPoint x="436" y="535" as="sourcePoint" />
            <mxPoint x="336" y="420" as="targetPoint" />
          </mxGeometry>
        </mxCell>
        <mxCell id="xxnfUtCZBif7c-njbAb_-21" value="GPS Service" style="shape=umlActor;verticalLabelPosition=bottom;verticalAlign=top;html=1;" parent="xxnfUtCZBif7c-njbAb_-1" vertex="1">
          <mxGeometry x="669.5" y="505" width="30" height="60" as="geometry" />
        </mxCell>
        <mxCell id="xxnfUtCZBif7c-njbAb_-26" value="" style="endArrow=open;endFill=1;endSize=12;html=1;rounded=0;entryX=1;entryY=0.5;entryDx=0;entryDy=0;" parent="xxnfUtCZBif7c-njbAb_-1" source="xxnfUtCZBif7c-njbAb_-21" edge="1">
          <mxGeometry width="160" relative="1" as="geometry">
            <mxPoint x="264.5" y="565" as="sourcePoint" />
            <mxPoint x="548" y="535" as="targetPoint" />
          </mxGeometry>
        </mxCell>
        <mxCell id="xxnfUtCZBif7c-njbAb_-27" value="Calculate arrival time" style="ellipse;whiteSpace=wrap;html=1;direction=south;" parent="xxnfUtCZBif7c-njbAb_-1" vertex="1">
          <mxGeometry x="177" y="612" width="70" height="74" as="geometry" />
        </mxCell>
        <mxCell id="cTKHeZEQc6TLYkNhQjcp-1" value="Display&lt;div&gt;route&lt;/div&gt;" style="ellipse;whiteSpace=wrap;html=1;" parent="xxnfUtCZBif7c-njbAb_-1" vertex="1">
          <mxGeometry x="77" y="580" width="64" height="50" as="geometry" />
        </mxCell>
        <mxCell id="tlJrk00Td1L9qtGwrMWg-2" value="&amp;lt;&amp;lt;include&amp;gt;&amp;gt;" style="html=1;verticalAlign=bottom;labelBackgroundColor=none;endArrow=open;endFill=0;dashed=1;rounded=0;exitX=0;exitY=0.5;exitDx=0;exitDy=0;entryX=1;entryY=0.5;entryDx=0;entryDy=0;" edge="1" parent="xxnfUtCZBif7c-njbAb_-1" source="xxnfUtCZBif7c-njbAb_-27" target="xxnfUtCZBif7c-njbAb_-28">
          <mxGeometry x="-0.0076" width="160" relative="1" as="geometry">
            <mxPoint x="269.5" y="525" as="sourcePoint" />
            <mxPoint x="198.4278316079326" y="655.2565004664575" as="targetPoint" />
            <mxPoint as="offset" />
          </mxGeometry>
        </mxCell>
        <mxCell id="tlJrk00Td1L9qtGwrMWg-3" value="&amp;lt;&amp;lt;include&amp;gt;&amp;gt;" style="html=1;verticalAlign=bottom;labelBackgroundColor=none;endArrow=open;endFill=0;dashed=1;rounded=0;exitX=0.5;exitY=0;exitDx=0;exitDy=0;entryX=0.5;entryY=1;entryDx=0;entryDy=0;" edge="1" parent="xxnfUtCZBif7c-njbAb_-1" source="cTKHeZEQc6TLYkNhQjcp-1" target="xxnfUtCZBif7c-njbAb_-28">
          <mxGeometry width="160" relative="1" as="geometry">
            <mxPoint x="213" y="588" as="sourcePoint" />
            <mxPoint x="180.37258300203052" y="662.3223304703363" as="targetPoint" />
          </mxGeometry>
        </mxCell>
        <mxCell id="xxnfUtCZBif7c-njbAb_-28" value="Calculate route" style="ellipse;whiteSpace=wrap;html=1;" parent="xxnfUtCZBif7c-njbAb_-1" vertex="1">
          <mxGeometry x="129.5" y="490" width="64" height="50" as="geometry" />
        </mxCell>
        <mxCell id="tlJrk00Td1L9qtGwrMWg-9" value="&amp;lt;&amp;lt;include&amp;gt;&amp;gt;" style="html=1;verticalAlign=bottom;labelBackgroundColor=none;endArrow=open;endFill=0;dashed=1;rounded=0;exitX=0.5;exitY=0;exitDx=0;exitDy=0;entryX=1;entryY=1;entryDx=0;entryDy=0;" edge="1" parent="xxnfUtCZBif7c-njbAb_-1" source="xxnfUtCZBif7c-njbAb_-28" target="xxnfUtCZBif7c-njbAb_-13">
          <mxGeometry x="-0.0076" width="160" relative="1" as="geometry">
            <mxPoint x="248" y="537" as="sourcePoint" />
            <mxPoint x="230" y="440" as="targetPoint" />
            <mxPoint as="offset" />
          </mxGeometry>
        </mxCell>
        <mxCell id="xxnfUtCZBif7c-njbAb_-2" value="User" style="shape=umlActor;verticalLabelPosition=bottom;verticalAlign=top;html=1;" parent="1" vertex="1">
          <mxGeometry x="35" y="-170" width="30" height="60" as="geometry" />
        </mxCell>
        <mxCell id="Hbn11iiGn2dGavcuRzI4-10" value="" style="endArrow=open;endFill=1;endSize=12;html=1;rounded=0;" parent="1" source="xxnfUtCZBif7c-njbAb_-2" target="xxnfUtCZBif7c-njbAb_-13" edge="1">
          <mxGeometry width="160" relative="1" as="geometry">
            <mxPoint x="57" y="-290.5" as="sourcePoint" />
            <mxPoint x="217" y="-290.5" as="targetPoint" />
          </mxGeometry>
        </mxCell>
        <mxCell id="Hbn11iiGn2dGavcuRzI4-11" value="" style="endArrow=open;endFill=1;endSize=12;html=1;rounded=0;entryX=0;entryY=1;entryDx=0;entryDy=0;" parent="1" source="xxnfUtCZBif7c-njbAb_-2" target="xxnfUtCZBif7c-njbAb_-14" edge="1">
          <mxGeometry width="160" relative="1" as="geometry">
            <mxPoint x="75" y="-283" as="sourcePoint" />
            <mxPoint x="152" y="-349" as="targetPoint" />
          </mxGeometry>
        </mxCell>
        <mxCell id="Hbn11iiGn2dGavcuRzI4-12" value="" style="endArrow=open;endFill=1;endSize=12;html=1;rounded=0;entryX=0;entryY=0.5;entryDx=0;entryDy=0;" parent="1" source="xxnfUtCZBif7c-njbAb_-2" target="xxnfUtCZBif7c-njbAb_-9" edge="1">
          <mxGeometry width="160" relative="1" as="geometry">
            <mxPoint x="85" y="-273" as="sourcePoint" />
            <mxPoint x="162" y="-339" as="targetPoint" />
          </mxGeometry>
        </mxCell>
        <mxCell id="Hbn11iiGn2dGavcuRzI4-13" value="" style="endArrow=open;endFill=1;endSize=12;html=1;rounded=0;entryX=0;entryY=1;entryDx=0;entryDy=0;" parent="1" source="xxnfUtCZBif7c-njbAb_-2" target="xxnfUtCZBif7c-njbAb_-51" edge="1">
          <mxGeometry width="160" relative="1" as="geometry">
            <mxPoint x="95" y="-263" as="sourcePoint" />
            <mxPoint x="145" y="-352" as="targetPoint" />
          </mxGeometry>
        </mxCell>
        <mxCell id="Hbn11iiGn2dGavcuRzI4-14" value="" style="endArrow=open;endFill=1;endSize=12;html=1;rounded=0;entryX=0;entryY=0.5;entryDx=0;entryDy=0;" parent="1" source="xxnfUtCZBif7c-njbAb_-2" target="xxnfUtCZBif7c-njbAb_-17" edge="1">
          <mxGeometry width="160" relative="1" as="geometry">
            <mxPoint x="105" y="-253" as="sourcePoint" />
            <mxPoint x="182" y="-319" as="targetPoint" />
          </mxGeometry>
        </mxCell>
        <mxCell id="Hbn11iiGn2dGavcuRzI4-20" value="" style="endArrow=open;endFill=1;endSize=12;html=1;rounded=0;entryX=0;entryY=0.5;entryDx=0;entryDy=0;exitX=1;exitY=0.3333333333333333;exitDx=0;exitDy=0;exitPerimeter=0;" parent="1" source="xxnfUtCZBif7c-njbAb_-2" target="xxnfUtCZBif7c-njbAb_-10" edge="1">
          <mxGeometry width="160" relative="1" as="geometry">
            <mxPoint x="65" y="-280" as="sourcePoint" />
            <mxPoint x="242" y="-259" as="targetPoint" />
          </mxGeometry>
        </mxCell>
        <mxCell id="m_eC-Jq7Mb4rGVVXy1KV-1" value="Museum" style="shape=umlActor;verticalLabelPosition=bottom;verticalAlign=top;html=1;outlineConnect=0;" parent="1" vertex="1">
          <mxGeometry x="762" y="-230" width="30" height="60" as="geometry" />
        </mxCell>
        <mxCell id="m_eC-Jq7Mb4rGVVXy1KV-4" value="" style="endArrow=open;endFill=1;endSize=12;html=1;rounded=0;entryX=1;entryY=0.5;entryDx=0;entryDy=0;" parent="1" source="m_eC-Jq7Mb4rGVVXy1KV-1" target="m_eC-Jq7Mb4rGVVXy1KV-3" edge="1">
          <mxGeometry width="160" relative="1" as="geometry">
            <mxPoint x="623" y="-150" as="sourcePoint" />
            <mxPoint x="555" y="-150" as="targetPoint" />
          </mxGeometry>
        </mxCell>
        <mxCell id="tlJrk00Td1L9qtGwrMWg-1" value="Route Calculation&lt;div&gt;System&lt;/div&gt;" style="shape=umlActor;verticalLabelPosition=bottom;verticalAlign=top;html=1;" vertex="1" parent="1">
          <mxGeometry x="35" y="160" width="30" height="60" as="geometry" />
        </mxCell>
        <mxCell id="tlJrk00Td1L9qtGwrMWg-4" value="" style="endArrow=open;endFill=1;endSize=12;html=1;rounded=0;entryX=0;entryY=0;entryDx=0;entryDy=0;" edge="1" parent="1" source="tlJrk00Td1L9qtGwrMWg-1" target="xxnfUtCZBif7c-njbAb_-30">
          <mxGeometry width="160" relative="1" as="geometry">
            <mxPoint x="131.5" y="150" as="sourcePoint" />
            <mxPoint x="220.5" y="231" as="targetPoint" />
          </mxGeometry>
        </mxCell>
        <mxCell id="tlJrk00Td1L9qtGwrMWg-5" value="" style="endArrow=open;endFill=1;endSize=12;html=1;rounded=0;entryX=1;entryY=1;entryDx=0;entryDy=0;" edge="1" parent="1" source="tlJrk00Td1L9qtGwrMWg-1" target="xxnfUtCZBif7c-njbAb_-27">
          <mxGeometry width="160" relative="1" as="geometry">
            <mxPoint x="95" y="130" as="sourcePoint" />
            <mxPoint x="184" y="211" as="targetPoint" />
          </mxGeometry>
        </mxCell>
        <mxCell id="tlJrk00Td1L9qtGwrMWg-6" value="" style="endArrow=open;endFill=1;endSize=12;html=1;rounded=0;entryX=0;entryY=0.5;entryDx=0;entryDy=0;" edge="1" parent="1" source="tlJrk00Td1L9qtGwrMWg-1" target="cTKHeZEQc6TLYkNhQjcp-1">
          <mxGeometry width="160" relative="1" as="geometry">
            <mxPoint x="95" y="-96" as="sourcePoint" />
            <mxPoint x="184" y="-15" as="targetPoint" />
          </mxGeometry>
        </mxCell>
      </root>
    </mxGraphModel>
  </diagram>
</mxfile>
